<svg xmlns="http://www.w3.org/2000/svg" version="1.1" xmlns:xlink="http://www.w3.org/1999/xlink" xmlns:svgjs="http://svgjs.com/svgjs" width="1440" height="250" preserveAspectRatio="none" viewBox="0 0 1440 250"><g mask="url(&quot;#SvgjsMask2783&quot;)" fill="none"><rect width="1440" height="250" x="0" y="0" fill="url(#SvgjsLinearGradient2784)"></rect><path d="M9 250L259 0L607 0L357 250z" fill="url(#SvgjsLinearGradient2785)"></path><path d="M270.6 250L520.6 0L831.1 0L581.1 250z" fill="url(#SvgjsLinearGradient2785)"></path><path d="M485.20000000000005 250L735.2 0L975.2 0L725.2 250z" fill="url(#SvgjsLinearGradient2785)"></path><path d="M735.8000000000001 250L985.8000000000001 0L1167.3000000000002 0L917.3000000000001 250z" fill="url(#SvgjsLinearGradient2785)"></path><path d="M1426 250L1176 0L1126.5 0L1376.5 250z" fill="url(#SvgjsLinearGradient2786)"></path><path d="M1171.4 250L921.4000000000001 0L780.4000000000001 0L1030.4 250z" fill="url(#SvgjsLinearGradient2786)"></path><path d="M916.8 250L666.8 0L368.29999999999995 0L618.3 250z" fill="url(#SvgjsLinearGradient2786)"></path><path d="M682.1999999999999 250L432.19999999999993 0L193.69999999999993 0L443.69999999999993 250z" fill="url(#SvgjsLinearGradient2786)"></path><path d="M1194.6396307059815 250L1440 4.639630705981432L1440 250z" fill="url(#SvgjsLinearGradient2785)"></path><path d="M0 250L245.36036929401857 250L 0 4.639630705981432z" fill="url(#SvgjsLinearGradient2786)"></path></g><defs><mask id="SvgjsMask2783"><rect width="1440" height="250" fill="#ffffff"></rect></mask><linearGradient x1="20.66%" y1="-119%" x2="79.34%" y2="219%" gradientUnits="userSpaceOnUse" id="SvgjsLinearGradient2784"><stop stop-color="#0e2a47" offset="0"></stop><stop stop-color="rgba(76, 97, 255, 1)" offset="1"></stop></linearGradient><linearGradient x1="0%" y1="100%" x2="100%" y2="0%" id="SvgjsLinearGradient2785"><stop stop-color="rgba(15, 70, 185, 0.2)" offset="0"></stop><stop stop-opacity="0" stop-color="rgba(15, 70, 185, 0.2)" offset="0.66"></stop></linearGradient><linearGradient x1="100%" y1="100%" x2="0%" y2="0%" id="SvgjsLinearGradient2786"><stop stop-color="rgba(15, 70, 185, 0.2)" offset="0"></stop><stop stop-opacity="0" stop-color="rgba(15, 70, 185, 0.2)" offset="0.66"></stop></linearGradient></defs></svg>